<?xml version="1.0" encoding="UTF-8"?>
<svg id="Capa_2" xmlns="http://www.w3.org/2000/svg" viewBox="0 0 988.77 283.08">
  <defs>
    <style>
      .cls-1 {
        fill: #00226c;
      }
    </style>
  </defs>
  <g id="Capa_2-2" data-name="Capa_2">
    <g>
      <polygon class="cls-1" points="226.41 84.87 198.04 113.24 113.25 198.04 84.87 226.41 56.61 198.14 0 141.54 141.54 0 169.91 28.37 56.74 141.54 84.98 169.77 169.77 84.98 198.14 56.61 226.41 84.87"/>
      <polygon class="cls-1" points="283.08 141.55 141.55 283.08 113.14 254.68 141.51 226.31 141.55 226.34 226.34 141.55 226.31 141.51 254.68 113.14 283.08 141.55"/>
    </g>
    <g>
      <path class="cls-1" d="M333.97,102.16v-51.5h37.96v6.77h-30.24v15.45h19.87v6.55h-19.87v15.97h30.53v6.77h-38.26Z"/>
      <path class="cls-1" d="M412.33,102.9c-4.12,0-8.09-.81-11.92-2.43-3.83-1.62-7.21-3.9-10.15-6.84l4.71-5.44c2.8,2.75,5.65,4.78,8.57,6.11,2.92,1.32,5.97,1.99,9.16,1.99,2.5,0,4.69-.36,6.58-1.07,1.89-.71,3.35-1.73,4.38-3.05,1.03-1.32,1.55-2.82,1.55-4.49,0-2.3-.81-4.07-2.43-5.3-1.62-1.23-4.29-2.16-8.02-2.8l-8.61-1.4c-4.71-.83-8.23-2.35-10.56-4.56-2.33-2.21-3.49-5.15-3.49-8.83,0-2.94.78-5.53,2.35-7.76,1.57-2.23,3.79-3.96,6.66-5.19,2.87-1.23,6.19-1.84,9.97-1.84s7.39.6,11,1.8c3.61,1.2,6.85,2.93,9.75,5.19l-4.27,5.89c-5.54-4.22-11.16-6.33-16.85-6.33-2.26,0-4.22.32-5.89.96-1.67.64-2.97,1.53-3.9,2.69-.93,1.15-1.4,2.49-1.4,4.01,0,2.11.71,3.72,2.13,4.82,1.42,1.1,3.78,1.9,7.06,2.39l8.31,1.4c5.45.88,9.44,2.48,11.99,4.78,2.55,2.31,3.83,5.47,3.83,9.49,0,3.14-.86,5.9-2.57,8.28-1.72,2.38-4.12,4.23-7.21,5.55-3.09,1.32-6.67,1.99-10.74,1.99Z"/>
      <path class="cls-1" d="M467.73,102.16v-44.66h-18.1v-6.84h43.92v6.84h-18.1v44.66h-7.73Z"/>
      <path class="cls-1" d="M535.71,102.97c-4.46,0-8.34-.93-11.62-2.8-3.29-1.86-5.81-4.5-7.58-7.91-1.77-3.41-2.65-7.44-2.65-12.1v-29.5h7.72v29.5c0,3.19.58,5.96,1.73,8.31,1.15,2.35,2.8,4.17,4.93,5.45,2.13,1.28,4.62,1.91,7.47,1.91s5.47-.64,7.58-1.91c2.11-1.28,3.74-3.09,4.89-5.45,1.15-2.35,1.73-5.12,1.73-8.31v-29.5h7.73v29.5c0,4.66-.9,8.69-2.69,12.1-1.79,3.41-4.33,6.05-7.61,7.91-3.29,1.86-7.16,2.8-11.62,2.8Z"/>
      <path class="cls-1" d="M581.91,102.16v-51.5h18.17c3.87,0,7.45.65,10.74,1.95,3.29,1.3,6.15,3.1,8.61,5.41,2.45,2.31,4.37,5.03,5.74,8.17,1.37,3.14,2.06,6.55,2.06,10.23s-.67,7.15-2.02,10.26c-1.35,3.12-3.25,5.83-5.7,8.13-2.45,2.31-5.33,4.11-8.64,5.41-3.31,1.3-6.91,1.95-10.78,1.95h-18.17ZM589.63,95.25h10.59c2.7,0,5.2-.48,7.5-1.43,2.3-.96,4.33-2.28,6.07-3.97,1.74-1.69,3.09-3.68,4.05-5.96s1.43-4.77,1.43-7.47-.48-5.12-1.43-7.43c-.96-2.3-2.31-4.3-4.05-6s-3.76-3.02-6.07-3.97c-2.31-.96-4.81-1.43-7.5-1.43h-10.59v37.67Z"/>
      <path class="cls-1" d="M650.11,102.16v-51.5h7.72v51.5h-7.72Z"/>
      <path class="cls-1" d="M707.64,102.97c-3.73,0-7.21-.67-10.45-2.02-3.24-1.35-6.09-3.24-8.57-5.67-2.48-2.43-4.39-5.25-5.74-8.46-1.35-3.21-2.02-6.68-2.02-10.41s.67-7.2,2.02-10.41c1.35-3.21,3.26-6.03,5.74-8.46,2.48-2.43,5.33-4.32,8.57-5.67,3.24-1.35,6.72-2.02,10.45-2.02s7.22.68,10.48,2.02c3.26,1.35,6.12,3.24,8.57,5.67,2.45,2.43,4.37,5.25,5.74,8.46,1.37,3.21,2.06,6.68,2.06,10.41s-.69,7.2-2.06,10.41c-1.37,3.21-3.29,6.03-5.74,8.46-2.45,2.43-5.31,4.32-8.57,5.67-3.26,1.35-6.76,2.02-10.48,2.02ZM707.72,95.84c2.65,0,5.11-.49,7.39-1.47,2.28-.98,4.28-2.34,6-4.08,1.72-1.74,3.07-3.8,4.05-6.18.98-2.38,1.47-4.94,1.47-7.69s-.49-5.37-1.47-7.72-2.33-4.4-4.05-6.14c-1.72-1.74-3.72-3.1-6-4.08-2.28-.98-4.75-1.47-7.39-1.47s-5.2.49-7.5,1.47c-2.31.98-4.32,2.34-6.03,4.08-1.72,1.74-3.05,3.79-4.01,6.14-.96,2.35-1.43,4.9-1.43,7.65s.48,5.38,1.43,7.76c.96,2.38,2.29,4.44,4.01,6.18,1.72,1.74,3.73,3.1,6.03,4.08,2.3.98,4.81,1.47,7.5,1.47Z"/>
    </g>
    <g>
      <path class="cls-1" d="M375.62,232.92c-8.34,0-16.48-1.55-24.43-4.64-7.95-3.09-15.01-7.48-21.19-13.17l12.22-15.31c5.98,5.3,11.75,9.12,17.29,11.48,5.54,2.35,11.41,3.53,17.59,3.53,4.32,0,8.04-.51,11.19-1.54,3.14-1.03,5.57-2.53,7.29-4.49,1.71-1.96,2.58-4.27,2.58-6.92,0-3.53-1.28-6.26-3.83-8.17-2.55-1.91-6.92-3.41-13.1-4.49l-20.46-3.53c-8.73-1.47-15.38-4.56-19.94-9.27s-6.84-10.79-6.84-18.25c0-6.38,1.64-11.92,4.93-16.63,3.29-4.71,7.95-8.31,13.98-10.82,6.03-2.5,13.22-3.75,21.56-3.75,7.55,0,15.09,1.28,22.59,3.83,7.51,2.55,14.15,6.08,19.94,10.6l-11.48,15.9c-10.79-8.24-21.63-12.36-32.53-12.36-3.83,0-7.16.49-10.01,1.47-2.85.98-5.03,2.33-6.55,4.05-1.52,1.72-2.28,3.75-2.28,6.11,0,3.14,1.13,5.57,3.39,7.29,2.26,1.72,6.03,3.02,11.33,3.9l19.43,3.24c10.3,1.67,18,4.93,23.11,9.79,5.1,4.86,7.65,11.26,7.65,19.21,0,6.67-1.77,12.49-5.3,17.44-3.53,4.96-8.56,8.78-15.09,11.48-6.53,2.7-14.2,4.05-23.03,4.05Z"/>
      <path class="cls-1" d="M431.7,231.44v-103.03h21.34v41.5h47.39v-41.5h21.34v103.03h-21.34v-42.24h-47.39v42.24h-21.34Z"/>
      <path class="cls-1" d="M530.6,231.44l42.39-103.03h24.58l41.95,103.03h-23.11l-10.45-27.08h-42.53l-10.6,27.08h-22.22ZM570.05,187.29h29.44l-14.72-37.97-14.72,37.97Z"/>
      <path class="cls-1" d="M648.2,231.44v-103.03h39.59c7.75,0,14.91,1.3,21.49,3.9,6.57,2.6,12.31,6.26,17.22,10.96,4.91,4.71,8.76,10.21,11.55,16.48,2.8,6.28,4.19,13.05,4.19,20.31s-1.38,14.13-4.12,20.31c-2.75,6.18-6.6,11.6-11.55,16.26-4.96,4.66-10.72,8.29-17.29,10.89-6.57,2.6-13.74,3.9-21.49,3.9h-39.59ZM669.54,212.46h17.96c4.61,0,8.9-.81,12.88-2.43,3.97-1.62,7.46-3.9,10.45-6.84,2.99-2.94,5.3-6.38,6.92-10.3,1.62-3.92,2.43-8.19,2.43-12.8s-.84-8.9-2.5-12.88c-1.67-3.97-3.97-7.43-6.92-10.38s-6.4-5.25-10.38-6.92c-3.97-1.67-8.27-2.5-12.88-2.5h-17.96v65.05Z"/>
      <path class="cls-1" d="M756.81,231.44v-103.03h39.59c7.75,0,14.91,1.3,21.49,3.9,6.57,2.6,12.31,6.26,17.22,10.96,4.91,4.71,8.76,10.21,11.55,16.48,2.8,6.28,4.19,13.05,4.19,20.31s-1.38,14.13-4.12,20.31c-2.75,6.18-6.6,11.6-11.55,16.26-4.96,4.66-10.72,8.29-17.29,10.89-6.57,2.6-13.74,3.9-21.49,3.9h-39.59ZM778.15,212.46h17.96c4.61,0,8.9-.81,12.88-2.43,3.97-1.62,7.46-3.9,10.45-6.84,2.99-2.94,5.3-6.38,6.92-10.3,1.62-3.92,2.43-8.19,2.43-12.8s-.84-8.9-2.5-12.88c-1.67-3.97-3.97-7.43-6.92-10.38s-6.4-5.25-10.38-6.92c-3.97-1.67-8.27-2.5-12.88-2.5h-17.96v65.05Z"/>
      <path class="cls-1" d="M849.83,231.44l42.39-103.03h24.58l41.95,103.03h-23.11l-10.45-27.08h-42.53l-10.6,27.08h-22.22ZM889.27,187.29h29.44l-14.72-37.97-14.72,37.97Z"/>
      <path class="cls-1" d="M967.42,231.44v-103.03h21.34v103.03h-21.34Z"/>
    </g>
  </g>
</svg>